# xmcd CD database file
#
# Track frame offsets:
#	150
#	11200
#	30597
#	43660
#	58575
#	72160
#	84972
#	98805
#	109337
#	122440
#	137472
#	146007
#	156547
#	168015
#	188015
#	200272
#	215565
#	227255
#	236780
#	253380
#	268897
#	283805
#	302477
#	317132
#	332122
#
# Disc length: 4627 seconds
#
# Revision: 0
# Processed by: cddbd v1.5PL3 Copyright (c) Steve Scherf et al.
# Submitted via: CDex 1.50
#
DISCID=6a121119
DTITLE=John Hammond - Bluesman
DYEAR=2002
DGENRE=Blues
TTITLE0=Bull Frog Blues
TTITLE1=Backdoor Man
TTITLE2=Tell Me More
TTITLE3=Mama Keep Your Big Mouth Shut
TTITLE4=Honest I Do
TTITLE5=My Starter Wont Start
TTITLE6=The Hoochie Coochie Man
TTITLE7=Help Me
TTITLE8=Got My Mojo Working
TTITLE9=Barbeque Blues
TTITLE10=Get Right Church
TTITLE11=Baby Please Dont Go
TTITLE12=Who Do You Love
TTITLE13=Sweet Home Chicago
TTITLE14=Five Long Years
TTITLE15=Southbound Blues
TTITLE16=Maybelline
TTITLE17=My Babe
TTITLE18=Look On Yonder Wall
TTITLE19=Howling For My Baby
TTITLE20=Aint That Loving You Baby
TTITLE21=They Call It Stormy Monday
TTITLE22=I Cant Be Satisfied
TTITLE23=Long Distance Call
TTITLE24=I'm Leaving You
EXTD=YEAR: 2002
EXTT0=
EXTT1=
EXTT2=
EXTT3=
EXTT4=
EXTT5=
EXTT6=
EXTT7=
EXTT8=
EXTT9=
EXTT10=
EXTT11=
EXTT12=
EXTT13=
EXTT14=
EXTT15=
EXTT16=
EXTT17=
EXTT18=
EXTT19=
EXTT20=
EXTT21=
EXTT22=
EXTT23=
EXTT24=
PLAYORDER=
